# xmcd
#
# Track frame offsets:
#	150
#	8203
#	10080
#	30687
#	48727
#	51493
#	69988
#	87091
#	108792
#	128568
#	146740
#	150833
#	169105
#	187502
#	203269
#
# Disc length: 2967 seconds
#
# Revision: 6
# Processed by: cddbd v1.5.2PL0 Copyright (c) Steve Scherf et al.
# Submitted via: EasyCDDAExtractor 15.3.0.1
#
DISCID=ae0b950f
DTITLE=Christina Aguilera - Liberation
DYEAR=2018
DGENRE=Pop
TTITLE0=Liberation
TTITLE1=Searching For Maria
TTITLE2=Maria
TTITLE3=Sick Of Sittin'
TTITLE4=Dreamers
TTITLE5=Fall In Line (Featuring Demi Lovato)
TTITLE6=Right Moves (Featuring Keida and Shenseea)
TTITLE7=Like I Do
TTITLE8=Deserve
TTITLE9=Twice
TTITLE10=I Don't Need It Anymore (Interlude)
TTITLE11=Accelerate (Featuring Ty Dolla $ign and 2 Chainz)
TTITLE12=Pipe
TTITLE13=Masochist
TTITLE14=Unless It's With You
EXTD=
EXTT0=
EXTT1=
EXTT2=
EXTT3=
EXTT4=
EXTT5=
EXTT6=
EXTT7=
EXTT8=
EXTT9=
EXTT10=
EXTT11=
EXTT12=
EXTT13=
EXTT14=
PLAYORDER=
